<mxfile host="app.diagrams.net" modified="2023-03-14T17:59:10.997Z" agent="5.0 (Windows NT 10.0; Win64; x64) AppleWebKit/537.36 (KHTML, like Gecko) Chrome/110.0.0.0 Safari/537.36 OPR/96.0.0.0" etag="egjmIWYfMFX9z_dSajt4" version="21.0.4" type="github">
  <diagram name="Page-1" id="oLp8PXrFoAo25mWbSfcb">
    <mxGraphModel dx="1466" dy="1898" grid="1" gridSize="10" guides="1" tooltips="1" connect="1" arrows="1" fold="1" page="1" pageScale="1" pageWidth="850" pageHeight="1100" math="0" shadow="0">
      <root>
        <mxCell id="0" />
        <mxCell id="1" parent="0" />
        <mxCell id="z9_6NJVO3Y7MdxRCK-k6-3" value="" style="edgeStyle=orthogonalEdgeStyle;rounded=0;orthogonalLoop=1;jettySize=auto;html=1;entryX=0;entryY=0.5;entryDx=0;entryDy=0;" parent="1" source="z9_6NJVO3Y7MdxRCK-k6-1" target="0bMyIWMPU83hLZPshQtl-1" edge="1">
          <mxGeometry relative="1" as="geometry">
            <mxPoint x="360" y="-80" as="targetPoint" />
            <Array as="points" />
          </mxGeometry>
        </mxCell>
        <mxCell id="z9_6NJVO3Y7MdxRCK-k6-1" value="360 Spruce Sapling" style="whiteSpace=wrap;html=1;aspect=fixed;" parent="1" vertex="1">
          <mxGeometry x="120" y="-160" width="120" height="120" as="geometry" />
        </mxCell>
        <mxCell id="0bMyIWMPU83hLZPshQtl-6" style="edgeStyle=orthogonalEdgeStyle;rounded=0;orthogonalLoop=1;jettySize=auto;html=1;entryX=0.5;entryY=0;entryDx=0;entryDy=0;" edge="1" parent="1" source="z9_6NJVO3Y7MdxRCK-k6-4" target="0bMyIWMPU83hLZPshQtl-1">
          <mxGeometry relative="1" as="geometry" />
        </mxCell>
        <mxCell id="z9_6NJVO3Y7MdxRCK-k6-4" value="36,000L&lt;br&gt;Water" style="whiteSpace=wrap;html=1;aspect=fixed;" parent="1" vertex="1">
          <mxGeometry x="360" y="-400" width="120" height="120" as="geometry" />
        </mxCell>
        <mxCell id="0bMyIWMPU83hLZPshQtl-8" style="edgeStyle=orthogonalEdgeStyle;rounded=0;orthogonalLoop=1;jettySize=auto;html=1;exitX=1;exitY=0.5;exitDx=0;exitDy=0;entryX=0;entryY=0.5;entryDx=0;entryDy=0;" edge="1" parent="1" source="z9_6NJVO3Y7MdxRCK-k6-6" target="0bMyIWMPU83hLZPshQtl-2">
          <mxGeometry relative="1" as="geometry" />
        </mxCell>
        <mxCell id="z9_6NJVO3Y7MdxRCK-k6-6" value="36,000L&lt;br&gt;Biomass" style="whiteSpace=wrap;html=1;aspect=fixed;" parent="1" vertex="1">
          <mxGeometry x="600" y="-160" width="120" height="120" as="geometry" />
        </mxCell>
        <mxCell id="0bMyIWMPU83hLZPshQtl-11" style="edgeStyle=orthogonalEdgeStyle;rounded=0;orthogonalLoop=1;jettySize=auto;html=1;" edge="1" parent="1" source="z9_6NJVO3Y7MdxRCK-k6-12" target="0bMyIWMPU83hLZPshQtl-4">
          <mxGeometry relative="1" as="geometry" />
        </mxCell>
        <mxCell id="z9_6NJVO3Y7MdxRCK-k6-12" value="18,000L&lt;br&gt;Ethanol" style="whiteSpace=wrap;html=1;aspect=fixed;" parent="1" vertex="1">
          <mxGeometry x="840" y="80" width="120" height="120" as="geometry" />
        </mxCell>
        <mxCell id="0bMyIWMPU83hLZPshQtl-16" style="edgeStyle=orthogonalEdgeStyle;rounded=0;orthogonalLoop=1;jettySize=auto;html=1;entryX=0.5;entryY=0;entryDx=0;entryDy=0;" edge="1" parent="1" source="z9_6NJVO3Y7MdxRCK-k6-21" target="0bMyIWMPU83hLZPshQtl-15">
          <mxGeometry relative="1" as="geometry" />
        </mxCell>
        <mxCell id="z9_6NJVO3Y7MdxRCK-k6-21" value="18,000L&lt;br&gt;Ethylene&lt;br&gt;(Cell)" style="whiteSpace=wrap;html=1;aspect=fixed;" parent="1" vertex="1">
          <mxGeometry x="360" y="80" width="120" height="120" as="geometry" />
        </mxCell>
        <mxCell id="0bMyIWMPU83hLZPshQtl-7" style="edgeStyle=orthogonalEdgeStyle;rounded=0;orthogonalLoop=1;jettySize=auto;html=1;exitX=1;exitY=0.5;exitDx=0;exitDy=0;entryX=0;entryY=0.5;entryDx=0;entryDy=0;" edge="1" parent="1" source="0bMyIWMPU83hLZPshQtl-1" target="z9_6NJVO3Y7MdxRCK-k6-6">
          <mxGeometry relative="1" as="geometry" />
        </mxCell>
        <mxCell id="0bMyIWMPU83hLZPshQtl-1" value="Brewing&lt;br&gt;Machine&lt;br&gt;(LV+)" style="shape=process;whiteSpace=wrap;html=1;backgroundOutline=1;" vertex="1" parent="1">
          <mxGeometry x="360" y="-160" width="120" height="120" as="geometry" />
        </mxCell>
        <mxCell id="0bMyIWMPU83hLZPshQtl-10" style="edgeStyle=orthogonalEdgeStyle;rounded=0;orthogonalLoop=1;jettySize=auto;html=1;exitX=0.5;exitY=1;exitDx=0;exitDy=0;entryX=0.5;entryY=0;entryDx=0;entryDy=0;" edge="1" parent="1" source="0bMyIWMPU83hLZPshQtl-2" target="z9_6NJVO3Y7MdxRCK-k6-12">
          <mxGeometry relative="1" as="geometry" />
        </mxCell>
        <mxCell id="0bMyIWMPU83hLZPshQtl-2" value="Distillery&lt;br&gt;(LV+)" style="shape=process;whiteSpace=wrap;html=1;backgroundOutline=1;" vertex="1" parent="1">
          <mxGeometry x="840" y="-160" width="120" height="120" as="geometry" />
        </mxCell>
        <mxCell id="0bMyIWMPU83hLZPshQtl-12" style="edgeStyle=orthogonalEdgeStyle;rounded=0;orthogonalLoop=1;jettySize=auto;html=1;exitX=0;exitY=0.5;exitDx=0;exitDy=0;" edge="1" parent="1" source="0bMyIWMPU83hLZPshQtl-4" target="z9_6NJVO3Y7MdxRCK-k6-21">
          <mxGeometry relative="1" as="geometry" />
        </mxCell>
        <mxCell id="0bMyIWMPU83hLZPshQtl-4" value="Dehydrator&lt;br&gt;(MV+)" style="shape=process;whiteSpace=wrap;html=1;backgroundOutline=1;" vertex="1" parent="1">
          <mxGeometry x="600" y="80" width="120" height="120" as="geometry" />
        </mxCell>
        <mxCell id="0bMyIWMPU83hLZPshQtl-17" style="edgeStyle=orthogonalEdgeStyle;rounded=0;orthogonalLoop=1;jettySize=auto;html=1;entryX=0.331;entryY=-0.001;entryDx=0;entryDy=0;entryPerimeter=0;" edge="1" parent="1" source="0bMyIWMPU83hLZPshQtl-13" target="0bMyIWMPU83hLZPshQtl-15">
          <mxGeometry relative="1" as="geometry">
            <Array as="points">
              <mxPoint x="180" y="260" />
              <mxPoint x="400" y="260" />
            </Array>
          </mxGeometry>
        </mxCell>
        <mxCell id="0bMyIWMPU83hLZPshQtl-13" value="18,000L&lt;br&gt;HCl&lt;br&gt;(Fluid)" style="whiteSpace=wrap;html=1;aspect=fixed;" vertex="1" parent="1">
          <mxGeometry x="120" y="80" width="120" height="120" as="geometry" />
        </mxCell>
        <mxCell id="0bMyIWMPU83hLZPshQtl-18" style="edgeStyle=orthogonalEdgeStyle;rounded=0;orthogonalLoop=1;jettySize=auto;html=1;entryX=0;entryY=0.5;entryDx=0;entryDy=0;" edge="1" parent="1" source="0bMyIWMPU83hLZPshQtl-14" target="0bMyIWMPU83hLZPshQtl-15">
          <mxGeometry relative="1" as="geometry" />
        </mxCell>
        <mxCell id="0bMyIWMPU83hLZPshQtl-14" value="9,000L&lt;br&gt;Oxygen&lt;br&gt;(Cell)" style="whiteSpace=wrap;html=1;aspect=fixed;" vertex="1" parent="1">
          <mxGeometry x="120" y="320" width="120" height="120" as="geometry" />
        </mxCell>
        <mxCell id="0bMyIWMPU83hLZPshQtl-20" style="edgeStyle=orthogonalEdgeStyle;rounded=0;orthogonalLoop=1;jettySize=auto;html=1;entryX=0;entryY=0.5;entryDx=0;entryDy=0;" edge="1" parent="1" source="0bMyIWMPU83hLZPshQtl-15" target="0bMyIWMPU83hLZPshQtl-19">
          <mxGeometry relative="1" as="geometry" />
        </mxCell>
        <mxCell id="0bMyIWMPU83hLZPshQtl-22" style="edgeStyle=orthogonalEdgeStyle;rounded=0;orthogonalLoop=1;jettySize=auto;html=1;entryX=0.5;entryY=0;entryDx=0;entryDy=0;" edge="1" parent="1" source="0bMyIWMPU83hLZPshQtl-15" target="0bMyIWMPU83hLZPshQtl-21">
          <mxGeometry relative="1" as="geometry">
            <Array as="points">
              <mxPoint x="420" y="500" />
              <mxPoint x="180" y="500" />
            </Array>
          </mxGeometry>
        </mxCell>
        <mxCell id="0bMyIWMPU83hLZPshQtl-15" value="Chemical Reactor&lt;br&gt;(MV+)" style="shape=process;whiteSpace=wrap;html=1;backgroundOutline=1;" vertex="1" parent="1">
          <mxGeometry x="360" y="320" width="120" height="120" as="geometry" />
        </mxCell>
        <mxCell id="0bMyIWMPU83hLZPshQtl-31" style="edgeStyle=orthogonalEdgeStyle;rounded=0;orthogonalLoop=1;jettySize=auto;html=1;entryX=0.5;entryY=0;entryDx=0;entryDy=0;" edge="1" parent="1" source="0bMyIWMPU83hLZPshQtl-19" target="0bMyIWMPU83hLZPshQtl-28">
          <mxGeometry relative="1" as="geometry" />
        </mxCell>
        <mxCell id="0bMyIWMPU83hLZPshQtl-19" value="18,000L&lt;br&gt;Vinyl Chloride&lt;br&gt;(Fluid)" style="whiteSpace=wrap;html=1;aspect=fixed;" vertex="1" parent="1">
          <mxGeometry x="600" y="320" width="120" height="120" as="geometry" />
        </mxCell>
        <mxCell id="0bMyIWMPU83hLZPshQtl-21" value="18,000L&lt;br&gt;Water&lt;br&gt;(Cell)" style="whiteSpace=wrap;html=1;aspect=fixed;" vertex="1" parent="1">
          <mxGeometry x="120" y="560" width="120" height="120" as="geometry" />
        </mxCell>
        <mxCell id="0bMyIWMPU83hLZPshQtl-34" style="edgeStyle=orthogonalEdgeStyle;rounded=0;orthogonalLoop=1;jettySize=auto;html=1;entryX=1;entryY=0.5;entryDx=0;entryDy=0;" edge="1" parent="1" source="0bMyIWMPU83hLZPshQtl-28" target="0bMyIWMPU83hLZPshQtl-33">
          <mxGeometry relative="1" as="geometry" />
        </mxCell>
        <mxCell id="0bMyIWMPU83hLZPshQtl-28" value="Chemical Reactor&lt;br&gt;#1&lt;br&gt;(LV+)" style="shape=process;whiteSpace=wrap;html=1;backgroundOutline=1;" vertex="1" parent="1">
          <mxGeometry x="600" y="560" width="120" height="120" as="geometry" />
        </mxCell>
        <mxCell id="0bMyIWMPU83hLZPshQtl-30" style="edgeStyle=orthogonalEdgeStyle;rounded=0;orthogonalLoop=1;jettySize=auto;html=1;entryX=1;entryY=0.5;entryDx=0;entryDy=0;" edge="1" parent="1" source="0bMyIWMPU83hLZPshQtl-29" target="0bMyIWMPU83hLZPshQtl-28">
          <mxGeometry relative="1" as="geometry" />
        </mxCell>
        <mxCell id="0bMyIWMPU83hLZPshQtl-29" value="125,000L&lt;br&gt;Oxygen&lt;br&gt;(Cell)" style="whiteSpace=wrap;html=1;aspect=fixed;" vertex="1" parent="1">
          <mxGeometry x="840" y="560" width="120" height="120" as="geometry" />
        </mxCell>
        <mxCell id="0bMyIWMPU83hLZPshQtl-33" value="24,000L&lt;br&gt;PVC&lt;br&gt;(Fluid)" style="whiteSpace=wrap;html=1;aspect=fixed;" vertex="1" parent="1">
          <mxGeometry x="360" y="560" width="120" height="120" as="geometry" />
        </mxCell>
        <mxCell id="0bMyIWMPU83hLZPshQtl-35" value="&lt;font style=&quot;font-size: 36px;&quot;&gt;The Diagram&lt;/font&gt;" style="rounded=1;whiteSpace=wrap;html=1;" vertex="1" parent="1">
          <mxGeometry x="360" y="-640" width="360" height="120" as="geometry" />
        </mxCell>
        <mxCell id="0bMyIWMPU83hLZPshQtl-36" value="&lt;font style=&quot;font-size: 36px;&quot;&gt;The Actual Layout&lt;/font&gt;" style="rounded=1;whiteSpace=wrap;html=1;" vertex="1" parent="1">
          <mxGeometry x="1720" y="-640" width="360" height="120" as="geometry" />
        </mxCell>
        <mxCell id="0bMyIWMPU83hLZPshQtl-39" value="Resources" style="rounded=0;whiteSpace=wrap;html=1;" vertex="1" parent="1">
          <mxGeometry x="1080" y="-760" width="80" height="80" as="geometry" />
        </mxCell>
        <mxCell id="0bMyIWMPU83hLZPshQtl-41" value="Machines" style="shape=process;whiteSpace=wrap;html=1;backgroundOutline=1;" vertex="1" parent="1">
          <mxGeometry x="1240" y="-760" width="80" height="80" as="geometry" />
        </mxCell>
        <mxCell id="0bMyIWMPU83hLZPshQtl-44" value="MV Brewery" style="shape=process;whiteSpace=wrap;html=1;backgroundOutline=1;" vertex="1" parent="1">
          <mxGeometry x="1360" y="-160" width="120" height="120" as="geometry" />
        </mxCell>
        <mxCell id="0bMyIWMPU83hLZPshQtl-45" value="Spruce Saplings&lt;br&gt;(From spruce farm)" style="whiteSpace=wrap;html=1;aspect=fixed;rounded=0;glass=0;shadow=0;" vertex="1" parent="1">
          <mxGeometry x="1120" y="-160" width="120" height="120" as="geometry" />
        </mxCell>
        <mxCell id="0bMyIWMPU83hLZPshQtl-114" style="edgeStyle=orthogonalEdgeStyle;rounded=0;orthogonalLoop=1;jettySize=auto;html=1;entryX=0;entryY=0.5;entryDx=0;entryDy=0;" edge="1" parent="1" source="0bMyIWMPU83hLZPshQtl-54" target="0bMyIWMPU83hLZPshQtl-111">
          <mxGeometry relative="1" as="geometry" />
        </mxCell>
        <mxCell id="0bMyIWMPU83hLZPshQtl-54" value="Water&lt;br&gt;(from reservoir)" style="whiteSpace=wrap;html=1;aspect=fixed;" vertex="1" parent="1">
          <mxGeometry x="1360" y="-400" width="120" height="120" as="geometry" />
        </mxCell>
        <mxCell id="0bMyIWMPU83hLZPshQtl-68" style="edgeStyle=orthogonalEdgeStyle;rounded=0;orthogonalLoop=1;jettySize=auto;html=1;entryX=0;entryY=0.5;entryDx=0;entryDy=0;" edge="1" parent="1" source="0bMyIWMPU83hLZPshQtl-57" target="0bMyIWMPU83hLZPshQtl-67">
          <mxGeometry relative="1" as="geometry" />
        </mxCell>
        <mxCell id="0bMyIWMPU83hLZPshQtl-57" value="MV Distillery&lt;br&gt;Circuit 1" style="shape=process;whiteSpace=wrap;html=1;backgroundOutline=1;" vertex="1" parent="1">
          <mxGeometry x="1600" y="-160" width="120" height="120" as="geometry" />
        </mxCell>
        <mxCell id="0bMyIWMPU83hLZPshQtl-60" value="" style="endArrow=classic;html=1;rounded=0;entryX=0.5;entryY=0;entryDx=0;entryDy=0;" edge="1" parent="1" target="0bMyIWMPU83hLZPshQtl-44">
          <mxGeometry relative="1" as="geometry">
            <mxPoint x="1420" y="-280" as="sourcePoint" />
            <mxPoint x="1520" y="-280" as="targetPoint" />
          </mxGeometry>
        </mxCell>
        <mxCell id="0bMyIWMPU83hLZPshQtl-61" value="Reservoir auto output" style="edgeLabel;resizable=0;html=1;align=center;verticalAlign=middle;" connectable="0" vertex="1" parent="0bMyIWMPU83hLZPshQtl-60">
          <mxGeometry relative="1" as="geometry" />
        </mxCell>
        <mxCell id="0bMyIWMPU83hLZPshQtl-62" value="" style="endArrow=classic;html=1;rounded=0;" edge="1" parent="1" target="0bMyIWMPU83hLZPshQtl-44">
          <mxGeometry relative="1" as="geometry">
            <mxPoint x="1240" y="-100" as="sourcePoint" />
            <mxPoint x="1340" y="-100" as="targetPoint" />
          </mxGeometry>
        </mxCell>
        <mxCell id="0bMyIWMPU83hLZPshQtl-63" value="Conveyor" style="edgeLabel;resizable=0;html=1;align=center;verticalAlign=middle;" connectable="0" vertex="1" parent="0bMyIWMPU83hLZPshQtl-62">
          <mxGeometry relative="1" as="geometry" />
        </mxCell>
        <mxCell id="0bMyIWMPU83hLZPshQtl-64" value="" style="endArrow=classic;html=1;rounded=0;entryX=0;entryY=0.5;entryDx=0;entryDy=0;" edge="1" parent="1" target="0bMyIWMPU83hLZPshQtl-57">
          <mxGeometry relative="1" as="geometry">
            <mxPoint x="1480" y="-100" as="sourcePoint" />
            <mxPoint x="1580" y="-100" as="targetPoint" />
          </mxGeometry>
        </mxCell>
        <mxCell id="0bMyIWMPU83hLZPshQtl-66" value="Auto Fluid Output" style="text;html=1;align=center;verticalAlign=middle;resizable=0;points=[];autosize=1;strokeColor=none;fillColor=none;" vertex="1" parent="1">
          <mxGeometry x="1480" y="-130" width="120" height="30" as="geometry" />
        </mxCell>
        <mxCell id="0bMyIWMPU83hLZPshQtl-101" style="edgeStyle=orthogonalEdgeStyle;rounded=0;orthogonalLoop=1;jettySize=auto;html=1;entryX=0.5;entryY=0;entryDx=0;entryDy=0;" edge="1" parent="1" source="0bMyIWMPU83hLZPshQtl-67" target="0bMyIWMPU83hLZPshQtl-74">
          <mxGeometry relative="1" as="geometry" />
        </mxCell>
        <mxCell id="0bMyIWMPU83hLZPshQtl-67" value="MV Dehydrator&lt;br&gt;Bio Circuit 18&lt;br&gt;(has empty cells)" style="shape=process;whiteSpace=wrap;html=1;backgroundOutline=1;" vertex="1" parent="1">
          <mxGeometry x="1840" y="-160" width="120" height="120" as="geometry" />
        </mxCell>
        <mxCell id="0bMyIWMPU83hLZPshQtl-70" value="Auto Fluid Output" style="text;html=1;align=center;verticalAlign=middle;resizable=0;points=[];autosize=1;strokeColor=none;fillColor=none;" vertex="1" parent="1">
          <mxGeometry x="1720" y="-130" width="120" height="30" as="geometry" />
        </mxCell>
        <mxCell id="0bMyIWMPU83hLZPshQtl-103" style="edgeStyle=orthogonalEdgeStyle;rounded=0;orthogonalLoop=1;jettySize=auto;html=1;entryX=0.5;entryY=0;entryDx=0;entryDy=0;" edge="1" parent="1" source="0bMyIWMPU83hLZPshQtl-74" target="0bMyIWMPU83hLZPshQtl-86">
          <mxGeometry relative="1" as="geometry" />
        </mxCell>
        <mxCell id="0bMyIWMPU83hLZPshQtl-74" value="2 Slot Drawer&lt;br&gt;- Ethylene Cell&lt;br&gt;- Oxygen Cell" style="rounded=1;whiteSpace=wrap;html=1;" vertex="1" parent="1">
          <mxGeometry x="1840" y="80" width="120" height="120" as="geometry" />
        </mxCell>
        <mxCell id="0bMyIWMPU83hLZPshQtl-75" value="Storage" style="rounded=1;whiteSpace=wrap;html=1;" vertex="1" parent="1">
          <mxGeometry x="1160" y="-760" width="80" height="80" as="geometry" />
        </mxCell>
        <mxCell id="0bMyIWMPU83hLZPshQtl-102" style="edgeStyle=orthogonalEdgeStyle;rounded=0;orthogonalLoop=1;jettySize=auto;html=1;entryX=0;entryY=0.5;entryDx=0;entryDy=0;" edge="1" parent="1" source="0bMyIWMPU83hLZPshQtl-86" target="0bMyIWMPU83hLZPshQtl-90">
          <mxGeometry relative="1" as="geometry" />
        </mxCell>
        <mxCell id="0bMyIWMPU83hLZPshQtl-137" style="edgeStyle=orthogonalEdgeStyle;rounded=0;orthogonalLoop=1;jettySize=auto;html=1;entryX=0.5;entryY=0;entryDx=0;entryDy=0;" edge="1" parent="1" source="0bMyIWMPU83hLZPshQtl-86" target="0bMyIWMPU83hLZPshQtl-126">
          <mxGeometry relative="1" as="geometry" />
        </mxCell>
        <mxCell id="0bMyIWMPU83hLZPshQtl-86" value="MV Chemical&lt;br&gt;Reactor&lt;br&gt;" style="shape=process;whiteSpace=wrap;html=1;backgroundOutline=1;" vertex="1" parent="1">
          <mxGeometry x="1840" y="320" width="120" height="120" as="geometry" />
        </mxCell>
        <mxCell id="0bMyIWMPU83hLZPshQtl-105" style="edgeStyle=orthogonalEdgeStyle;rounded=0;orthogonalLoop=1;jettySize=auto;html=1;entryX=1;entryY=0.5;entryDx=0;entryDy=0;fillColor=#e51400;strokeColor=#B20000;" edge="1" parent="1" source="0bMyIWMPU83hLZPshQtl-90" target="0bMyIWMPU83hLZPshQtl-67">
          <mxGeometry relative="1" as="geometry">
            <Array as="points">
              <mxPoint x="2140" y="-100" />
            </Array>
          </mxGeometry>
        </mxCell>
        <mxCell id="0bMyIWMPU83hLZPshQtl-90" value="2 Slot Drawer&lt;br&gt;- Water Cell&lt;br&gt;- Empty Cell" style="rounded=1;whiteSpace=wrap;html=1;" vertex="1" parent="1">
          <mxGeometry x="2080" y="320" width="120" height="120" as="geometry" />
        </mxCell>
        <mxCell id="0bMyIWMPU83hLZPshQtl-107" value="Translocator" style="text;html=1;strokeColor=none;fillColor=none;align=center;verticalAlign=middle;whiteSpace=wrap;rounded=0;" vertex="1" parent="1">
          <mxGeometry x="1910" y="240" width="60" height="30" as="geometry" />
        </mxCell>
        <mxCell id="0bMyIWMPU83hLZPshQtl-108" value="Auto Item Output" style="text;html=1;align=center;verticalAlign=middle;resizable=0;points=[];autosize=1;strokeColor=none;fillColor=none;" vertex="1" parent="1">
          <mxGeometry x="1960" y="350" width="110" height="30" as="geometry" />
        </mxCell>
        <mxCell id="0bMyIWMPU83hLZPshQtl-109" value="Auto Item Output" style="text;html=1;align=center;verticalAlign=middle;resizable=0;points=[];autosize=1;strokeColor=none;fillColor=none;" vertex="1" parent="1">
          <mxGeometry x="1900" width="110" height="30" as="geometry" />
        </mxCell>
        <mxCell id="0bMyIWMPU83hLZPshQtl-117" style="edgeStyle=orthogonalEdgeStyle;rounded=0;orthogonalLoop=1;jettySize=auto;html=1;entryX=0.5;entryY=0;entryDx=0;entryDy=0;" edge="1" parent="1" source="0bMyIWMPU83hLZPshQtl-110" target="0bMyIWMPU83hLZPshQtl-116">
          <mxGeometry relative="1" as="geometry" />
        </mxCell>
        <mxCell id="0bMyIWMPU83hLZPshQtl-110" value="Electrolyzer" style="shape=process;whiteSpace=wrap;html=1;backgroundOutline=1;" vertex="1" parent="1">
          <mxGeometry x="2320" y="-160" width="120" height="120" as="geometry" />
        </mxCell>
        <mxCell id="0bMyIWMPU83hLZPshQtl-112" style="edgeStyle=orthogonalEdgeStyle;rounded=0;orthogonalLoop=1;jettySize=auto;html=1;entryX=0.5;entryY=0;entryDx=0;entryDy=0;" edge="1" parent="1" source="0bMyIWMPU83hLZPshQtl-111" target="0bMyIWMPU83hLZPshQtl-110">
          <mxGeometry relative="1" as="geometry" />
        </mxCell>
        <mxCell id="0bMyIWMPU83hLZPshQtl-111" value="Fluid Tank" style="rounded=1;whiteSpace=wrap;html=1;" vertex="1" parent="1">
          <mxGeometry x="2320" y="-400" width="120" height="120" as="geometry" />
        </mxCell>
        <mxCell id="0bMyIWMPU83hLZPshQtl-113" value="Water Cell" style="text;html=1;strokeColor=none;fillColor=none;align=center;verticalAlign=middle;whiteSpace=wrap;rounded=0;" vertex="1" parent="1">
          <mxGeometry x="2380" y="-230" width="60" height="30" as="geometry" />
        </mxCell>
        <mxCell id="0bMyIWMPU83hLZPshQtl-119" style="edgeStyle=orthogonalEdgeStyle;rounded=0;orthogonalLoop=1;jettySize=auto;html=1;entryX=0.5;entryY=0;entryDx=0;entryDy=0;" edge="1" parent="1" source="0bMyIWMPU83hLZPshQtl-116" target="0bMyIWMPU83hLZPshQtl-118">
          <mxGeometry relative="1" as="geometry" />
        </mxCell>
        <mxCell id="0bMyIWMPU83hLZPshQtl-120" style="edgeStyle=orthogonalEdgeStyle;rounded=0;orthogonalLoop=1;jettySize=auto;html=1;entryX=1;entryY=0.5;entryDx=0;entryDy=0;" edge="1" parent="1" source="0bMyIWMPU83hLZPshQtl-116" target="0bMyIWMPU83hLZPshQtl-74">
          <mxGeometry relative="1" as="geometry" />
        </mxCell>
        <mxCell id="0bMyIWMPU83hLZPshQtl-116" value="Electrolyzer&lt;br&gt;Circuit 1" style="shape=process;whiteSpace=wrap;html=1;backgroundOutline=1;" vertex="1" parent="1">
          <mxGeometry x="2320" y="80" width="120" height="120" as="geometry" />
        </mxCell>
        <mxCell id="0bMyIWMPU83hLZPshQtl-136" style="edgeStyle=orthogonalEdgeStyle;rounded=0;orthogonalLoop=1;jettySize=auto;html=1;entryX=0.5;entryY=1;entryDx=0;entryDy=0;fillColor=#e3c800;strokeColor=#B09500;" edge="1" parent="1" source="0bMyIWMPU83hLZPshQtl-118" target="0bMyIWMPU83hLZPshQtl-135">
          <mxGeometry relative="1" as="geometry">
            <mxPoint x="1420" y="500" as="targetPoint" />
            <Array as="points">
              <mxPoint x="2380" y="500" />
              <mxPoint x="1420" y="500" />
            </Array>
          </mxGeometry>
        </mxCell>
        <mxCell id="0bMyIWMPU83hLZPshQtl-118" value="Hydrogen Dump" style="rounded=1;whiteSpace=wrap;html=1;" vertex="1" parent="1">
          <mxGeometry x="2320" y="320" width="120" height="120" as="geometry" />
        </mxCell>
        <mxCell id="0bMyIWMPU83hLZPshQtl-121" value="" style="endArrow=classic;html=1;rounded=0;entryX=0;entryY=0.5;entryDx=0;entryDy=0;fillColor=#e51400;strokeColor=#B20000;" edge="1" parent="1" target="0bMyIWMPU83hLZPshQtl-110">
          <mxGeometry width="50" height="50" relative="1" as="geometry">
            <mxPoint x="2140" y="-100" as="sourcePoint" />
            <mxPoint x="2190" y="-150" as="targetPoint" />
          </mxGeometry>
        </mxCell>
        <mxCell id="0bMyIWMPU83hLZPshQtl-122" value="Empty Cell" style="text;html=1;strokeColor=none;fillColor=none;align=center;verticalAlign=middle;whiteSpace=wrap;rounded=0;" vertex="1" parent="1">
          <mxGeometry x="1985" y="-130" width="60" height="30" as="geometry" />
        </mxCell>
        <mxCell id="0bMyIWMPU83hLZPshQtl-123" value="Water Cell" style="text;html=1;strokeColor=none;fillColor=none;align=center;verticalAlign=middle;whiteSpace=wrap;rounded=0;" vertex="1" parent="1">
          <mxGeometry x="2230" y="-130" width="60" height="30" as="geometry" />
        </mxCell>
        <mxCell id="0bMyIWMPU83hLZPshQtl-125" style="edgeStyle=orthogonalEdgeStyle;rounded=0;orthogonalLoop=1;jettySize=auto;html=1;entryX=0;entryY=0.5;entryDx=0;entryDy=0;" edge="1" parent="1" source="0bMyIWMPU83hLZPshQtl-124" target="0bMyIWMPU83hLZPshQtl-86">
          <mxGeometry relative="1" as="geometry" />
        </mxCell>
        <mxCell id="0bMyIWMPU83hLZPshQtl-124" value="HCl&lt;br&gt;(Fluid)" style="whiteSpace=wrap;html=1;aspect=fixed;" vertex="1" parent="1">
          <mxGeometry x="1600" y="320" width="120" height="120" as="geometry" />
        </mxCell>
        <mxCell id="0bMyIWMPU83hLZPshQtl-131" style="edgeStyle=orthogonalEdgeStyle;rounded=0;orthogonalLoop=1;jettySize=auto;html=1;entryX=1;entryY=0.5;entryDx=0;entryDy=0;" edge="1" parent="1" source="0bMyIWMPU83hLZPshQtl-126" target="0bMyIWMPU83hLZPshQtl-130">
          <mxGeometry relative="1" as="geometry" />
        </mxCell>
        <mxCell id="0bMyIWMPU83hLZPshQtl-126" value="MV Chemical&lt;br&gt;Reactor&lt;br&gt;Circuit 1" style="shape=process;whiteSpace=wrap;html=1;backgroundOutline=1;" vertex="1" parent="1">
          <mxGeometry x="1840" y="560" width="120" height="120" as="geometry" />
        </mxCell>
        <mxCell id="0bMyIWMPU83hLZPshQtl-128" value="" style="endArrow=classic;html=1;rounded=0;entryX=1;entryY=0.5;entryDx=0;entryDy=0;" edge="1" parent="1" target="0bMyIWMPU83hLZPshQtl-126">
          <mxGeometry width="50" height="50" relative="1" as="geometry">
            <mxPoint x="2260" y="140" as="sourcePoint" />
            <mxPoint x="2290" y="270" as="targetPoint" />
            <Array as="points">
              <mxPoint x="2260" y="620" />
            </Array>
          </mxGeometry>
        </mxCell>
        <mxCell id="0bMyIWMPU83hLZPshQtl-129" value="Pump" style="text;html=1;strokeColor=none;fillColor=none;align=center;verticalAlign=middle;whiteSpace=wrap;rounded=0;" vertex="1" parent="1">
          <mxGeometry x="1900" y="440" width="60" height="40" as="geometry" />
        </mxCell>
        <mxCell id="0bMyIWMPU83hLZPshQtl-130" value="PVC&lt;br&gt;(Fluid)" style="rounded=1;whiteSpace=wrap;html=1;" vertex="1" parent="1">
          <mxGeometry x="1600" y="560" width="120" height="120" as="geometry" />
        </mxCell>
        <mxCell id="0bMyIWMPU83hLZPshQtl-132" value="Pump" style="text;html=1;align=center;verticalAlign=middle;resizable=0;points=[];autosize=1;strokeColor=none;fillColor=none;" vertex="1" parent="1">
          <mxGeometry x="1790" y="590" width="50" height="30" as="geometry" />
        </mxCell>
        <mxCell id="0bMyIWMPU83hLZPshQtl-133" value="" style="endArrow=classic;html=1;rounded=0;exitX=0.5;exitY=1;exitDx=0;exitDy=0;entryX=1;entryY=0.5;entryDx=0;entryDy=0;" edge="1" parent="1" source="0bMyIWMPU83hLZPshQtl-126" target="0bMyIWMPU83hLZPshQtl-111">
          <mxGeometry width="50" height="50" relative="1" as="geometry">
            <mxPoint x="1920" y="800" as="sourcePoint" />
            <mxPoint x="2500" y="-340" as="targetPoint" />
            <Array as="points">
              <mxPoint x="1900" y="740" />
              <mxPoint x="2500" y="740" />
              <mxPoint x="2500" y="-340" />
            </Array>
          </mxGeometry>
        </mxCell>
        <mxCell id="0bMyIWMPU83hLZPshQtl-134" value="" style="shape=link;html=1;rounded=0;" edge="1" parent="1">
          <mxGeometry width="100" relative="1" as="geometry">
            <mxPoint x="1040" y="-790" as="sourcePoint" />
            <mxPoint x="1040" y="800" as="targetPoint" />
          </mxGeometry>
        </mxCell>
        <mxCell id="0bMyIWMPU83hLZPshQtl-138" style="edgeStyle=orthogonalEdgeStyle;rounded=0;orthogonalLoop=1;jettySize=auto;html=1;entryX=0;entryY=0.5;entryDx=0;entryDy=0;" edge="1" parent="1" source="0bMyIWMPU83hLZPshQtl-135" target="0bMyIWMPU83hLZPshQtl-124">
          <mxGeometry relative="1" as="geometry" />
        </mxCell>
        <mxCell id="0bMyIWMPU83hLZPshQtl-135" value="MV Chemical&lt;br&gt;Reactor&lt;br&gt;Circuit 1" style="shape=process;whiteSpace=wrap;html=1;backgroundOutline=1;" vertex="1" parent="1">
          <mxGeometry x="1360" y="320" width="120" height="120" as="geometry" />
        </mxCell>
        <mxCell id="0bMyIWMPU83hLZPshQtl-140" style="edgeStyle=orthogonalEdgeStyle;rounded=0;orthogonalLoop=1;jettySize=auto;html=1;entryX=0.5;entryY=0;entryDx=0;entryDy=0;" edge="1" parent="1" source="0bMyIWMPU83hLZPshQtl-139" target="0bMyIWMPU83hLZPshQtl-135">
          <mxGeometry relative="1" as="geometry" />
        </mxCell>
        <mxCell id="0bMyIWMPU83hLZPshQtl-143" style="edgeStyle=orthogonalEdgeStyle;rounded=0;orthogonalLoop=1;jettySize=auto;html=1;entryX=0;entryY=0.5;entryDx=0;entryDy=0;" edge="1" parent="1" source="0bMyIWMPU83hLZPshQtl-139" target="0bMyIWMPU83hLZPshQtl-142">
          <mxGeometry relative="1" as="geometry" />
        </mxCell>
        <mxCell id="0bMyIWMPU83hLZPshQtl-139" value="Electrolyzer" style="shape=process;whiteSpace=wrap;html=1;backgroundOutline=1;" vertex="1" parent="1">
          <mxGeometry x="1360" y="80" width="120" height="120" as="geometry" />
        </mxCell>
        <mxCell id="0bMyIWMPU83hLZPshQtl-141" value="Auto Fluid Output" style="text;html=1;align=center;verticalAlign=middle;resizable=0;points=[];autosize=1;strokeColor=none;fillColor=none;" vertex="1" parent="1">
          <mxGeometry x="1360" y="240" width="120" height="30" as="geometry" />
        </mxCell>
        <mxCell id="0bMyIWMPU83hLZPshQtl-142" value="Na Dump" style="rounded=1;whiteSpace=wrap;html=1;" vertex="1" parent="1">
          <mxGeometry x="1600" y="80" width="120" height="120" as="geometry" />
        </mxCell>
        <mxCell id="0bMyIWMPU83hLZPshQtl-144" value="Auto Item Output" style="text;html=1;align=center;verticalAlign=middle;resizable=0;points=[];autosize=1;strokeColor=none;fillColor=none;" vertex="1" parent="1">
          <mxGeometry x="1900" y="680" width="110" height="30" as="geometry" />
        </mxCell>
        <mxCell id="0bMyIWMPU83hLZPshQtl-145" value="Pump" style="text;html=1;align=center;verticalAlign=middle;resizable=0;points=[];autosize=1;strokeColor=none;fillColor=none;" vertex="1" parent="1">
          <mxGeometry x="1720" y="350" width="50" height="30" as="geometry" />
        </mxCell>
      </root>
    </mxGraphModel>
  </diagram>
</mxfile>
